<?xml version="1.0" encoding="UTF-8" standalone="no"?>
<!DOCTYPE svg PUBLIC "-//W3C//DTD SVG 20010904//EN"
              "http://www.w3.org/TR/2001/REC-SVG-20010904/DTD/svg10.dtd">

<svg xmlns="http://www.w3.org/2000/svg"
     width="10.8556in" height="1.73333in"
     viewBox="0 0 977 156">
  <path id="パス"
        fill="none" stroke="black" stroke-width="1"
        d="M 78.23,41.33
           C 78.23,41.33 96.31,41.33 96.31,41.33
             107.83,41.33 114.08,41.66 121.28,42.45
             121.28,42.45 121.28,12.00 121.28,12.00
             113.92,12.69 107.52,13.00 96.31,13.00
             96.31,13.00 26.23,13.00 26.23,13.00
             16.47,13.12 7.67,12.64 2.39,12.00
             2.39,12.00 2.39,42.56 2.39,42.56
             13.75,41.48 16.47,41.33 26.55,41.33
             26.55,41.33 45.44,41.33 45.44,41.33
             45.44,41.33 45.44,121.88 45.44,121.88
             45.44,131.94 45.11,138.50 44.16,146.00
             44.16,146.00 79.52,146.00 79.52,146.00
             78.55,138.50 78.23,131.47 78.23,121.88
             78.23,121.88 78.23,41.33 78.23,41.33 Z
           M 264.80,146.00
           C 265.28,142.17 266.72,136.09 268.80,128.58
             268.80,128.58 294.39,32.83 294.39,32.83
             296.47,24.84 298.72,17.33 300.31,13.00
             300.31,13.00 264.00,13.00 264.00,13.00
             263.83,18.61 263.20,23.23 261.59,30.59
             261.59,30.59 251.52,78.23 251.52,78.23
             250.88,80.78 249.75,88.47 249.28,91.98
             248.31,98.69 248.31,98.69 248.00,101.73
             245.92,88.78 244.80,83.50 243.52,78.39
             243.52,78.39 230.55,29.16 230.55,29.16
             228.47,21.64 227.52,17.17 226.88,13.00
             226.88,13.00 198.39,13.00 198.39,13.00
             197.75,17.48 196.80,22.44 194.88,29.64
             194.88,29.64 182.08,79.19 182.08,79.19
             181.11,82.55 180.00,88.30 177.59,101.73
             175.67,89.09 174.55,81.59 174.08,79.19
             174.08,79.19 163.83,30.59 163.83,30.59
             162.55,23.88 161.75,18.77 161.59,13.00
             161.59,13.00 125.11,13.00 125.11,13.00
             126.72,17.33 128.95,24.69 131.19,32.83
             131.19,32.83 156.80,128.75 156.80,128.75
             159.19,138.02 160.00,141.38 160.80,146.00
             160.80,146.00 192.64,146.00 192.64,146.00
             193.11,141.69 194.08,137.06 196.16,129.06
             196.16,129.06 208.00,81.91 208.00,81.91
             209.92,74.39 211.83,64.33 212.80,57.77
             214.39,68.31 215.67,75.67 217.28,81.91
             217.28,81.91 229.44,128.91 229.44,128.91
             231.03,135.30 232.16,140.89 232.80,146.00
             232.80,146.00 264.80,146.00 264.80,146.00 Z
           M 311.91,13.00
           C 312.88,20.05 313.19,24.69 313.19,36.67
             313.19,36.67 313.19,122.34 313.19,122.34
             313.19,133.06 312.88,139.78 311.91,146.00
             311.91,146.00 347.11,146.00 347.11,146.00
             346.16,139.30 345.83,133.38 345.83,122.34
             345.83,122.34 345.83,36.67 345.83,36.67
             345.83,25.00 346.16,19.56 347.11,13.00
             347.11,13.00 311.91,13.00 311.91,13.00 Z
           M 362.91,105.88
           C 364.03,113.20 364.83,116.88 366.44,120.69
             369.80,129.81 375.72,136.69 383.72,141.17
             392.36,146.12 405.80,149.00 419.39,149.00
             438.11,149.00 452.19,144.38 461.47,135.41
             468.83,128.20 472.67,117.98 472.67,106.03
             472.67,91.38 466.92,80.70 455.39,73.53
             449.31,69.70 441.64,67.00 429.47,64.45
             410.59,60.62 410.59,60.62 407.39,59.19
             402.27,56.80 399.88,53.45 399.88,49.00
             399.88,41.66 407.08,36.41 416.83,36.41
             429.00,36.41 434.75,40.70 436.67,51.06
             436.67,51.06 470.59,47.41 470.59,47.41
             468.52,38.31 466.59,33.53 462.59,28.25
             453.95,16.25 438.44,10.00 418.11,10.00
             386.59,10.00 366.75,25.53 366.75,50.11
             366.75,63.02 372.19,73.69 382.27,80.70
             388.19,84.84 393.31,86.75 408.03,89.94
             424.67,93.77 428.67,94.88 432.03,96.47
             436.19,98.39 438.75,102.69 438.75,107.62
             438.75,116.55 431.39,121.97 419.08,121.97
             410.91,121.97 404.19,119.27 400.36,114.48
             397.95,111.30 396.83,108.42 396.19,102.69
             396.19,102.69 362.91,105.88 362.91,105.88 Z
           M 557.23,41.33
           C 557.23,41.33 575.31,41.33 575.31,41.33
             586.83,41.33 593.08,41.66 600.28,42.45
             600.28,42.45 600.28,12.00 600.28,12.00
             592.92,12.69 586.52,13.00 575.31,13.00
             575.31,13.00 505.23,13.00 505.23,13.00
             495.47,13.12 486.67,12.64 481.39,12.00
             481.39,12.00 481.39,42.56 481.39,42.56
             492.75,41.48 495.47,41.33 505.55,41.33
             505.55,41.33 524.44,41.33 524.44,41.33
             524.44,41.33 524.44,121.88 524.44,121.88
             524.44,131.94 524.11,138.50 523.16,146.00
             523.16,146.00 558.52,146.00 558.52,146.00
             557.55,138.50 557.23,131.47 557.23,121.88
             557.23,121.88 557.23,41.33 557.23,41.33 Z
           M 681.23,41.33
           C 681.23,41.33 699.31,41.33 699.31,41.33
             710.83,41.33 717.08,41.66 724.28,42.45
             724.28,42.45 724.28,12.00 724.28,12.00
             716.92,12.69 710.52,13.00 699.31,13.00
             699.31,13.00 629.23,13.00 629.23,13.00
             619.47,13.12 610.67,12.64 605.39,12.00
             605.39,12.00 605.39,42.56 605.39,42.56
             616.75,41.48 619.47,41.33 629.55,41.33
             629.55,41.33 648.44,41.33 648.44,41.33
             648.44,41.33 648.44,121.88 648.44,121.88
             648.44,131.94 648.11,138.50 647.16,146.00
             647.16,146.00 682.52,146.00 682.52,146.00
             681.55,138.50 681.23,131.47 681.23,121.88
             681.23,121.88 681.23,41.33 681.23,41.33 Z
           M 837.23,117.20
           C 830.36,118.00 823.31,118.33 811.16,118.33
             811.16,118.33 769.88,118.33 769.88,118.33
             769.88,118.33 769.88,91.38 769.88,91.38
             769.88,91.38 804.44,91.38 804.44,91.38
             815.47,91.38 820.92,91.69 828.44,92.50
             828.44,92.50 828.44,62.89 828.44,62.89
             818.83,63.84 815.00,64.00 804.44,64.00
             804.44,64.00 769.88,64.00 769.88,64.00
             769.88,64.00 769.88,40.69 769.88,40.69
             769.88,40.69 811.47,40.69 811.47,40.69
             822.19,40.69 827.95,41.00 835.31,41.80
             835.31,41.80 835.31,12.00 835.31,12.00
             827.80,12.69 822.36,13.00 811.47,13.00
             811.47,13.00 760.44,13.00 760.44,13.00
             747.95,13.00 743.47,12.84 736.91,12.53
             737.88,20.38 738.19,25.97 738.19,35.89
             738.19,35.89 738.19,123.12 738.19,123.12
             738.19,134.17 737.88,140.09 736.91,146.48
             743.80,146.17 748.27,146.00 760.44,146.00
             760.44,146.00 810.83,146.00 810.83,146.00
             824.59,146.00 830.36,146.33 837.23,147.12
             837.23,147.12 837.23,117.20 837.23,117.20 Z
           M 972.16,146.00
           C 968.16,137.53 966.23,133.55 964.47,129.06
             957.28,111.81 955.03,106.38 952.64,101.27
             947.52,89.91 943.83,86.23 935.67,83.67
             943.52,81.12 946.88,79.36 950.88,75.69
             957.11,69.77 960.31,60.83 960.31,49.47
             960.31,26.45 945.28,13.00 919.36,13.00
             919.36,13.00 877.75,13.00 877.75,13.00
             866.88,12.48 860.95,12.33 853.91,12.00
             854.88,19.70 855.19,25.64 855.19,35.59
             855.19,35.59 855.19,121.89 855.19,121.89
             855.19,133.80 854.88,138.61 853.91,146.00
             853.91,146.00 888.31,146.00 888.31,146.00
             887.36,138.61 887.03,132.67 887.03,121.73
             887.03,121.73 887.03,95.38 887.03,95.38
             887.03,95.38 903.36,95.38 903.36,95.38
             908.47,95.38 912.47,96.66 915.83,99.70
             919.83,103.25 921.75,106.94 926.88,120.92
             931.83,134.27 933.75,140.86 934.72,146.00
             934.72,146.00 972.16,146.00 972.16,146.00 Z
           M 887.03,68.00
           C 887.03,68.00 887.03,39.89 887.03,39.89
             887.03,39.89 912.16,39.89 912.16,39.89
             922.08,39.89 927.19,44.47 927.19,53.31
             927.19,62.33 921.44,68.00 912.00,68.00
             912.00,68.00 887.03,68.00 887.03,68.00 Z" />
</svg>
